#!OML:ASF H:\Martial Arts Walks\Project 1\Capture day 1\Session 1\male.ASF
:FULLY-SPECIFIED
:DEGREES
1564
root -4.40791 14.5365 -14.1685 6.85233 16.6583 0.700326
lowerback 20.1659 1.69293 0.357671
upperback -0.849337 2.40452 0.554265
thorax -12.3269 1.11678 -0.315677
lowerneck 0.681635 -9.22804 -10.069
upperneck -2.29772 -12.3432 8.45269
head 0.400921 -6.17486 4.40939
rclavicle -1.35174e-014 7.95139e-015
rhumerus 62.6955 33.9749 -47.536
rradius 95.2778
rwrist -44.5137
rhand 18.7765 -33.3433
rfingers 7.12502
rthumb 43.3937 -57.4486
lclavicle -1.35174e-014 7.95139e-015
lhumerus 0.996611 -72.8387 99.5331
lradius 60.2869
lwrist 9.09977
lhand -10.0138 35.0677
lfingers 7.12502
lthumb 15.9704 -295.571
rfemur -60.3814 -27.9764 38.3035
rtibia 77.277
rfoot -20.369 -27.7466
rtoes 2.79881
lfemur -50.2182 0.871156 -16.8951
ltibia 97.9562
lfoot -11.6436 19.4532
ltoes -4.5566
1565
root -4.4428 14.5541 -14.3369 6.91124 18.2059 0.819677
lowerback 19.8617 1.45484 0.378978
upperback -0.890336 2.10759 0.669519
thorax -12.2038 0.984368 -0.102397
lowerneck 0.70602 -9.36815 -10.1647
upperneck -2.04844 -12.5434 8.40959
head 0.501777 -6.27625 4.39648
rclavicle 3.37934e-014 7.95139e-016
rhumerus 63.8268 32.82 -47.2532
rradius 91.5195
rwrist -44.4102
rhand 14.772 -35.2466
rfingers 7.12502
rthumb 39.637 -60.5811
lclavicle 3.37934e-014 7.95139e-016
lhumerus 5.36911 -75.8942 96.3183
lradius 58.7814
lwrist 8.78192
lhand -9.00188 34.0081
lfingers 7.12502
lthumb 16.9446 -296.711
rfemur -61.1423 -28.9099 38.5
rtibia 76.7885
rfoot -19.7132 -27.7226
rtoes 3.27318
lfemur -47.3585 1.52624 -15.9497
ltibia 98.3026
lfoot -11.969 20.0404
ltoes -4.14828
1566
root -4.47379 14.568 -14.5013 6.91957 19.7296 0.922633
lowerback 19.5648 1.21439 0.36997
upperback -0.926245 1.80225 0.805392
thorax -12.0791 0.850223 0.150723
lowerneck 0.720256 -9.48423 -10.259
upperneck -1.78637 -12.7107 8.36334
head 0.605194 -6.36123 4.38256
rclavicle 5.82439e-014 1.03368e-014
rhumerus 64.7367 31.7291 -47.0185
rradius 87.9916
rwrist -44.7099
rhand 10.7168 -37.6278
rfingers 7.12502
rthumb 35.8059 -63.9917
lclavicle 5.82439e-014 1.03368e-014
lhumerus 11.1686 -78.6761 91.6149
lradius 57.3964
lwrist 8.14054
lhand -7.88452 33.0272
lfingers 7.12502
lthumb 18.0199 -297.788
rfemur -61.8619 -29.8398 38.6784
rtibia 76.3341
rfoot -19.0571 -27.7593
rtoes 3.76896
lfemur -44.3596 2.20247 -14.8271
ltibia 98.2978
lfoot -12.2573 20.5478
ltoes -3.75071
1567
root -4.50091 14.5788 -14.662 6.88568 21.2242 1.02221
lowerback 19.2868 0.976014 0.318788
upperback -0.961615 1.49095 0.952952
thorax -11.964 0.715741 0.439506
lowerneck 0.724712 -9.58176 -10.3546
upperneck -1.51336 -12.8525 8.33201
head 0.712859 -6.4336 4.37419
rclavicle -1.74931e-014 6.75868e-015
rhumerus 65.3306 30.6939 -46.8544
rradius 84.9407
rwrist -45.5437
rhand 6.72503 -40.4811
rfingers 7.12502
rthumb 32.0139 -67.6843
lclavicle -1.74931e-014 6.75868e-015
lhumerus 19.048 -81.1057 84.7353
lradius 56.18
lwrist 7.01814
lhand -6.74606 32.2133
lfingers 7.12502
lthumb 19.115 -298.706
rfemur -62.5487 -30.7652 38.8221
rtibia 75.9218
rfoot -18.4011 -27.84
rtoes 4.28296
lfemur -41.2501 2.89499 -13.5582
ltibia 97.9324
lfoot -12.4855 21.0248
ltoes -3.32503
1568
root -4.52425 14.5868 -14.8195 6.82238 22.6865 1.12839
lowerback 19.035 0.744576 0.218329
upperback -1.00384 1.17789 1.1028
thorax -11.87 0.582937 0.756522
lowerneck 0.727031 -9.66725 -10.4533
upperneck -1.2316 -12.9784 8.33285
head 0.825306 -6.49838 4.37785
rclavicle -2.16675e-014 2.22639e-014
rhumerus 65.4966 29.7086 -46.7843
rradius 82.628
rwrist -46.9467
rhand 2.83329 -43.6796
rfingers 7.12502
rthumb 28.3012 -71.5614
lclavicle -2.16675e-014 2.22639e-014
lhumerus 29.7162 -83.0911 74.9238
lradius 55.208
lwrist 5.27455
lhand -5.71113 31.6861
lfingers 7.12502
lthumb 20.11 -299.335
rfemur -63.2079 -31.6829 38.9166
rtibia 75.5557
rfoot -17.7531 -27.9399
rtoes 4.81253
lfemur -38.0645 3.60233 -12.1734
ltibia 97.201
lfoot -12.6465 21.511
ltoes -2.84016
1569
root -4.54388 14.5923 -14.9741 6.74294 24.1173 1.24661
lowerback 18.8109 0.523428 0.0650021
upperback -1.06179 0.866367 1.24827
thorax -11.8073 0.453477 1.09603
lowerneck 0.741202 -9.74621 -10.5577
upperneck -0.940953 -13.0975 8.37555
head 0.942155 -6.56035 4.39784
rclavicle 7.70291e-014 1.35174e-014
rhumerus 65.1276 28.7742 -46.8275
rradius 81.2844
rwrist -48.8093
rhand -0.920082 -46.9497
rfingers 7.12502
rthumb 24.7088 -75.3741
lclavicle 7.70291e-014 1.35174e-014
lhumerus 43.1605 -84.5483 62.1405
lradius 54.5836
lwrist 2.80832
lhand -4.88738 31.6052
lfingers 7.12502
lthumb 20.9016 -299.501
rfemur -63.8413 -32.5925 38.9537
rtibia 75.2357
rfoot -17.1239 -28.0357
rtoes 5.35032
lfemur -34.8389 4.32365 -10.7
ltibia 96.1016
lfoot -12.7536 22.0293
ltoes -2.27588
1570
root -4.5598 14.5955 -15.1255 6.6617 25.52 1.37624
lowerback 18.6067 0.314389 -0.140734
upperback -1.14484 0.558956 1.38754
thorax -11.7812 0.328801 1.45578
lowerneck 0.760756 -9.82412 -10.6271
upperneck -0.627981 -13.2142 8.79205
head 0.981428 -6.61528 4.07276
rclavicle -5.36719e-015 -1.35174e-014
rhumerus 64.1434 27.9006 -46.9918
rradius 81.0664
rwrist -50.8591
rhand -4.41728 -49.9022
rfingers 7.12502
rthumb 21.3532 -78.7457
lclavicle -5.36719e-015 -1.35174e-014
lhumerus 57.0475 -85.4937 48.6672
lradius 54.4308
lwrist -0.401973
lhand -4.30156 32.1436
lfingers 7.12502
lthumb 21.4644 -299.026
rfemur -64.4541 -33.496 38.9373
rtibia 74.9579
rfoot -16.53 -28.108
rtoes 5.90629
lfemur -31.6118 5.06036 -9.16034
ltibia 94.637
lfoot -12.8386 22.5802
ltoes -1.61639
1571
root -4.57188 14.5967 -15.2738 6.59229 26.9011 1.51133
lowerback 18.4055 0.118533 -0.394975
upperback -1.26165 0.258419 1.52364
thorax -11.7915 0.210534 1.83679
lowerneck 0.853134 -9.89757 -10.7522
upperneck -0.300255 -13.338 8.9086
head 1.09202 -6.68015 4.11349
rclavicle 4.12478e-014 -1.59028e-015
rhumerus 62.503 27.1051 -47.2668
rradius 82.0299
rwrist -52.694
rhand -7.46334 -52.1183
rfingers 7.12502
rthumb 18.4252 -81.2657
lclavicle 4.12478e-014 -1.59028e-015
lhumerus 66.4802 -86.135 39.3574
lradius 54.8812
lwrist -4.2296
lhand -3.84473 33.4
lfingers 7.12502
lthumb 21.9031 -297.82
rfemur -65.0566 -34.398 38.8839
rtibia 74.7148
rfoot -15.986 -28.1474
rtoes 6.49822
lfemur -28.4229 5.81636 -7.57331
ltibia 92.8124
lfoot -12.9324 23.1405
ltoes -0.880429
1572
root -4.57992 14.5965 -15.4187 6.54707 28.2692 1.64378
lowerback 18.186 -0.0627702 -0.690469
upperback -1.4182 -0.0311054 1.66192
thorax -11.8322 0.10085 2.23998
lowerneck 1.00114 -9.97086 -10.8895
upperneck 0.0586231 -13.4693 9.02308
head 1.20461 -6.75 4.15706
rclavicle 3.83654e-014 1.51076e-014
rhumerus 60.2045 26.4081 -47.6259
rradius 84.1276
rwrist -53.856
rhand -9.86315 -53.2633
rfingers 7.12502
rthumb 16.1154 -82.6133
lclavicle 3.83654e-014 1.51076e-014
lhumerus 65.9964 -86.7344 39.6384
lradius 56.0585
lwrist -8.31575
lhand -3.30282 35.2635
lfingers 7.12502
lthumb 22.4233 -296.018
rfemur -65.6634 -35.3035 38.8164
rtibia 74.4963
rfoot -15.5001 -28.1553
rtoes 7.1477
lfemur -25.3107 6.59796 -5.95746
ltibia 90.6357
lfoot -13.0425 23.6677
ltoes -0.149198
1573
root -4.58382 14.5957 -15.5601 6.53497 29.6343 1.76795
lowerback 17.929 -0.22655 -1.0208
upperback -1.61564 -0.303457 1.80712
thorax -11.8936 0.0028286 2.66517
lowerneck 1.20332 -10.0478 -11.0354
upperneck 0.460743 -13.6131 9.10685
head 1.32126 -6.82746 4.19396
rclavicle -6.52014e-014 3.18055e-015
rhumerus 57.2704 25.8269 -48.042
rradius 87.2281
rwrist -53.9372
rhand -11.512 -53.1679
rfingers 7.12502
rthumb 14.5272 -82.6393
lclavicle -6.52014e-014 3.18055e-015
lhumerus 49.0859 -87.2543 55.9945
lradius 58.055
lwrist -12.0474
lhand -2.5357 37.3124
lfingers 7.12502
lthumb 23.1595 -294.06
rfemur -66.2858 -36.2151 38.7532
rtibia 74.2912
rfoot -15.073 -28.1427
rtoes 7.87329
lfemur -22.3083 7.41256 -4.33398
ltibia 88.1168
lfoot -13.1349 24.1077
ltoes 0.425193
1574
root -4.58358 14.5951 -15.6985 6.56216 31.0058 1.88386
lowerback 17.6255 -0.36802 -1.37872
upperback -1.85003 -0.550252 1.95899
thorax -11.9664 -0.0797831 3.10536
lowerneck 1.44455 -10.1362 -11.1847
upperneck 0.915383 -13.7783 9.14304
head 1.44652 -6.91682 4.21695
rclavicle 4.60187e-014 1.19271e-014
rhumerus 53.7262 25.3671 -48.5116
rradius 91.1443
rwrist -52.6654
rhand -12.4974 -51.8618
rfingers 7.12502
rthumb 13.5776 -81.3991
lclavicle 4.60187e-014 1.19271e-014
lhumerus 15.8443 -87.0467 88.3127
lradius 60.9042
lwrist -14.6358
lhand -1.6342 38.857
lfingers 7.12502
lthumb 24.0242 -292.627
rfemur -66.9302 -37.1296 38.7005
rtibia 74.0899
rfoot -14.6934 -28.1272
rtoes 8.6762
lfemur -19.4446 8.26757 -2.73003
ltibia 85.2727
lfoot -13.1282 24.4085
ltoes 0.63816
1575
root -4.57949 14.5952 -15.8344 6.63013 32.3917 2.0018
lowerback 17.2815 -0.481071 -1.76712
upperback -2.11023 -0.763839 2.11388
thorax -12.0423 -0.14321 3.5559
lowerneck 1.69791 -10.2469 -11.3392
upperneck 1.4237 -13.9766 9.13636
head 1.58675 -7.02346 4.22536
rclavicle 8.54774e-015 -2.94201e-014
rhumerus 49.589 25.0145 -49.0665
rradius 95.6583
rwrist -49.9492
rhand -13.0898 -49.521
rfingers 7.12502
rthumb 13.0066 -79.0956
lclavicle 8.54774e-015 -2.94201e-014
lhumerus -10.8348 -85.6344 113.7
lradius 64.5622
lwrist -15.288
lhand -0.859524 39.1429
lfingers 7.12502
lthumb 24.7668 -292.441
rfemur -67.5877 -38.0389 38.641
rtibia 73.886
rfoot -14.3336 -28.1344
rtoes 9.51933
lfemur -16.7377 9.16618 -1.17974
ltibia 82.1285
lfoot -12.9143 24.5268
ltoes 0.293358
1576
root -4.57202 14.5961 -15.9691 6.74075 33.7947 2.14015
lowerback 16.9161 -0.56003 -2.19707
upperback -2.3811 -0.939047 2.26705
thorax -12.1163 -0.184414 4.01676
lowerneck 1.92846 -10.3915 -11.5123
upperneck 1.97698 -14.2203 9.11209
head 1.74916 -7.15274 4.22586
rclavicle 9.92929e-014 2.38542e-014
rhumerus 44.8657 24.7312 -49.7746
rradius 100.532
rwrist -45.8566
rhand -13.6851 -46.3529
rfingers 7.12502
rthumb 12.4327 -75.9631
lclavicle 9.92929e-014 2.38542e-014
lhumerus -25.0517 -83.4048 126.278
lradius 68.9137
lwrist -13.3735
lhand -0.406549 37.666
lfingers 7.12502
lthumb 25.2009 -293.978
rfemur -68.2414 -38.9252 38.5379
rtibia 73.6781
rfoot -13.9625 -28.1888
rtoes 10.3577
lfemur -14.2033 10.1087 0.277136
ltibia 78.7231
lfoot -12.3915 24.4314
ltoes -0.723741
